# Blender 4.2.3 LTS
# www.blender.org
o Cube
v 3.000000 -1.000000 -1.000000
v 3.000000 -1.000000 1.000000
v -3.000000 1.000000 -1.000000
v -3.000000 -1.000000 -1.000000
v -3.000000 1.000000 1.000000
v -3.000000 -1.000000 1.000000
vn -0.0000 -0.0000 -1.0000
vn -0.0000 -0.0000 1.0000
vn -1.0000 -0.0000 -0.0000
vn -0.0000 -1.0000 -0.0000
vn 0.3162 0.9487 -0.0000
vt 0.375000 0.250000
vt 0.625000 0.250000
vt 0.375000 0.500000
vt 0.625000 0.000000
vt 0.125000 0.750000
vt 0.375000 0.750000
vt 0.375000 0.000000
vt 0.125000 0.500000
s 0
f 4/1/1 3/2/1 1/3/1
f 5/4/2 6/5/2 2/6/2
f 5/4/3 4/1/3 6/7/3
f 1/3/4 6/5/4 4/8/4
f 3/2/5 2/6/5 1/3/5
f 5/4/3 3/2/3 4/1/3
f 1/3/4 2/6/4 6/5/4
f 3/2/5 5/4/5 2/6/5
